<svg xmlns="http://www.w3.org/2000/svg" viewBox="0 0 426.53 256.02"><defs><style>.cls-1{fill:#b9bbd0;}.cls-2{fill:#fefcff;}</style></defs><g id="Слой_2" data-name="Слой 2"><g id="Слой_1-2" data-name="Слой 1"><path class="cls-1" d="M229.92,109.2a2.27,2.27,0,0,0-.72.12.7.7,0,0,0-.43.32c-.91,2.23-45.56,83.21-45.56,83.44S178,250.14,178,250.14s1.17,3.78,4.46,3.8c1.34-2.35,13.53-25.16,18.49-34.12,2.73-4.92,5.33-9.91,8-14.84,3.32-6.08,6.55-12.2,9.84-18.29,2.71-5,5.44-10,8.15-14.95q4.38-8.07,8.74-16.15c3.58-6.64,7.12-13.3,10.71-19.93,3.11-5.75,6.35-11.43,9.37-17.22,1.61-3.1,3.56-6,4.85-9.29H248.7C242.4,109.17,236.22,109,229.92,109.2Z"/><path class="cls-1" d="M193,108.72c1.43.88,2.93.59,4.44.59,7.07,0,14.13,0,21.2,0,.89,0,4.55,0,5.34-.63s-2-1.24-1.86-2c1.68-9.83,3.36-19.65,5.12-29.46C229.67,63.48,232,49.75,234.43,36c2-10.87,3.81-21.76,5.7-32.63A3,3,0,0,0,240,1.1c-.36-.29-3.9.35-5.26.66-.18.12.85,1.43.43,2.08-.66,1-1.4,2-2.1,3-2.25,3-4.33,6.07-6.55,9.05-1.08,1.34-1.95,2.83-3,4.21-.4.16-.55.54-.78.86-3.26,4.44-6.56,8.86-9.79,13.32-2.63,3.63-5.2,7.32-7.79,11-1.86,2-12.47,54.37-12.38,56-.13.87-.4,1.7-.6,2.54s-.06,1.91-.27,2.86A1.8,1.8,0,0,0,193,108.72Z"/><path class="cls-1" d="M333.41,247.66a26.78,26.78,0,0,1-4.27-.7,8.38,8.38,0,0,1-1.92-.32,9.26,9.26,0,0,0,1,.06c-1.18-1.07-3.91-2.9-5.1-4-.12-.05-.38.08-.63.22l0,0a.49.49,0,0,0,0-.11h0a7.18,7.18,0,0,0-1.68-2.64v0l0,0h0c.33-.72-1-2.2-1.26-2.76-1-2.43-2-4.89-2.9-7.35,0-.06-.05-.12-.08-.19-.08-.23-.16-.47-.26-.69-.52-1.38-1-2.77-1.55-4.15-.15-.4-.3-.81-.47-1.22,0,0,0-.09-.05-.13-.36-.92-.71-1.85-1.08-2.77-2.69-6.8-5.2-13.68-7.83-20.51-1.56-4.07-3.27-8.09-4.58-12.26-.18-.63-.4-1.24-.64-1.85-1.82-4.74-3.78-9.42-5.38-14.23a4.7,4.7,0,0,0-.21-.5c-1.2-2.68-2.08-5.48-3.29-8.15a4.06,4.06,0,0,0-.53-1v0h0a1.06,1.06,0,0,0-.85-.38h0l-.33,0c-2.2,1.47-3.63,3.68-5.33,5.6-2.92,3.31-5.78,6.67-8.76,9.92-1.4,1.63-4.44,2.28-4.65,4.65-.24,2.8.08,5.88-.22,8.68-.19,1.84-2.23.59-1.89,2.49,0,0,0,1.75,0,1.82.14.26,4.75,9.77,8,17.92s6.66,16.37,7,16.9.48,1.22.8,1.79l0,0v.06a2,2,0,0,1,.14.23c.72,1.16,2.94,4.4,3.26,5a18.73,18.73,0,0,0,2.47,2.16c1.05,1.15,2.53,1.51,3.93,2s18.22,3.48,22.33,4.32,8.15,1.38,12.3,2.15A19.75,19.75,0,0,0,333.41,247.66Z"/><path class="cls-1" d="M426.12,8.57a6,6,0,0,0-3.79-3.28c-.73-.27-10.86-.72-15.16-.83-10.43.09-20.86-.18-31.28-.66L362,3.78l-2.71.35c-2.48.49-8,1.31-8.27,1.34l-9.51,1.38c-2.2.32-9.69,1.18-11.55,1.84h0c-.31.08-.64.17-.8.19-4.42.57-8.81,1.24-12.65,3.76a1.73,1.73,0,0,0-.25.16l-.08.06A42.61,42.61,0,0,0,312.4,16c-.54.27-18,18.48-18.21,18.83l0,.09c-.69,2.93-.21,5.91-.64,8.88a20.54,20.54,0,0,0-.63,4.73,10.19,10.19,0,0,1-.22,1.66s0,.19-.06.28c-.39,2.15-.72,4.32-1,6.48-.65,5.35-1.59,10.65-2.34,16a20.45,20.45,0,0,0-.53,5,2.34,2.34,0,0,0,.07.45,1.38,1.38,0,0,0,0,.2c1.3-.11,9.34-3,11-5.68L324,45.47c7.29-8.26,12.16-14.66,19.56-22.82,1.51-1.66,8.56-5.09,8.83-5.45,1.17-1.54-1.32-4.09.15-5.32a50.82,50.82,0,0,0,4.23-4.11c-1.44.64,2.31-1.22,1.26-1.19,4.31-1.11,1.09-1.84,5.49-2.06a105.84,105.84,0,0,1,10.83.2c7.06.36,14.13.1,21.2.35,8,.28,15.94.06,23.9.41,2.93.13,6,1.82,6.23,4,.19,1.67-1.19,3.06-1.47,4.57a3.84,3.84,0,0,0,1.61-2.21A5.59,5.59,0,0,0,426.12,8.57ZM334,8.57a0,0,0,0,0,0,0h.07A.13.13,0,0,1,334,8.57Z"/><path class="cls-1" d="M103,6c-1.47.24-5.58,1.61-7,1.84a69.32,69.32,0,0,1-8.15,2h0c-1.46.51-3,.77-4.42,1.35l-1,.36c-.88.41-1.85.59-2.73,1-2.1,1-4.27,1.7-6.31,2.79-2.38,1.26-4.8,2.46-7.21,3.66h0C56,21.69,38.51,40.86,38.16,41.21l-.37.36h0C27.27,50.11,17,74.6,16.71,75.16l-.09.23h0c-.44.35-2.87,7.33-2.86,7.61h0a2.1,2.1,0,0,0-.1.25h0c-.31.94-1.28,4.15-1.33,4.15s-2.08,7-2.07,7.13c-.22.59-.91,2.84-1,3.41-.44.87-2.46,9.26-2.71,9.86a27,27,0,0,0-.86,2.73,23.61,23.61,0,0,0-1.13,5.18q0,.12,0,.21c-.1.44-.18.88-.24,1.33l0,.06a30.68,30.68,0,0,0-.77,4.26h0c0,.37-.09.72-.13,1.05h0q-.09.8-.15,1.38c-.18,1.13-.43,2.14-.43,2.14h0a35.69,35.69,0,0,0-1.19,8.07,0,0,0,0,0,0,0c-.19,1.52-.32,3-.51,4.56-.06,1.7-.52,3.37-.34,5.09a1,1,0,0,0-.12.53c-.58,2.58-.34,5.23-.47,7.82C-.13,158.11.07,164.06.07,170v1c0,.14.13,1.61.33,3.56A32.41,32.41,0,0,0,1,179.71a30.49,30.49,0,0,0,1,5.78v0a28.33,28.33,0,0,0,1.86,7.32h0l.43,1.51a2.84,2.84,0,0,0,.25.86h0a36.33,36.33,0,0,0,3.39,9.2h0c.25,2,1.5,3.61,2.3,5.37a17.05,17.05,0,0,0,1.64,3.21s3.49,5.87,3.63,6l8.43,9.21a5.61,5.61,0,0,1,1,.6c4.06,3.87,8.93,6.6,13.6,9.61h.67A55,55,0,0,0,47.07,242c2.57,1,5.17,1.82,7.75,2.73.93.24,6.45,1.93,10.43,2.82l.92.32c1.44.49,2.77,1.27,4.26,1.63a45.54,45.54,0,0,0,7.82,2.39,11.62,11.62,0,0,0,2.37.67h0a84,84,0,0,0,9.24,1.54c0-.12-2.1-.42-2.1-.53a111.21,111.21,0,0,1-20.94-6.45,26.18,26.18,0,0,0-3.47-1.54A15.4,15.4,0,0,0,61,244.35a22.46,22.46,0,0,1-4-2.2,68,68,0,0,1-21.36-19.91,79.59,79.59,0,0,1-8.82-17.68,109.87,109.87,0,0,1-5.74-25.46c-.36-3-.25-6.11-1-9.1h0c.43-.33.35-.81.34-1.25-.24-6.38.37-12.76.34-19.14.11-.19.29-.38.3-.57.3-5.67,1-11.29,1.67-16.92.76-6.59,2-13.07,3.33-19.56C27,108,28.22,103.49,29.3,99c2.57-7.94,4.82-16,7.82-23.79a49.35,49.35,0,0,0,2.72-6.46,42.67,42.67,0,0,0,3-5.6c1-2.09,2-4.2,3.07-6.3.3-.26.7-.46.86-.78,1.26-2.63,3.18-4.84,4.58-7.38,3.08-3.83,5.74-8,9.18-11.56l.68-.67a2.2,2.2,0,0,0,1.85-.84c2.2-2.22,4-4.81,6.81-6.43a11.09,11.09,0,0,0,2.87-2.31C75.62,23.47,79.57,21.54,83,19c2.14-1.58,4.74-2.54,6.79-4.32h0c.91-.23,1.9-.34,2.38-1.36h0a1.86,1.86,0,0,0,1.36-.68c2-.27,3.64-1.45,5.37-2.29a90.13,90.13,0,0,1,13.4-5.2c.9-.27,6.35-1.48,7.13-2.08-2,0-11.44,1.72-16.29,3ZM6.87,145.87a.54.54,0,0,0,0-.11l.16.11Zm.33-38.15h0ZM62.06,245.46h-.12l-.13-.12ZM18.15,167.79c-.08,0-.11,0-.09.07s-.15-.11.08-.09l.27,0h-.26Zm1-.17v0h0Zm1-19h0ZM33.81,81.72a.65.65,0,0,0-.15-.1l.18-.2C33.84,81.52,33.82,81.62,33.81,81.72Zm9-41.94a.53.53,0,0,1,.62-.12A3.09,3.09,0,0,0,42.81,39.78Z"/><path class="cls-2" d="M182.87.11c6.59.49,50.74,1.5,52.21,1.65,1.25,2,1.25,2-1.39,5.23a44.33,44.33,0,0,0-4.18,5.46c-.9,1.21-1.77,2.45-2.67,3.66a49.18,49.18,0,0,0-2.75,4.12c-6.08,8.38-72.12,98.24-73.38,100-3.9,5.39-16.14,23.52-16.25,23.67-.37.52-.94,1.1.34,1.13h1c15.39,0,49.08-.6,50.53.06,1,1,.51,2.21.61,3.34a7.26,7.26,0,0,1-.1,2.18c-.45,2.1-7.36,99.25-7.69,100.93a2.82,2.82,0,0,1-.4,1.44c-2.17.32-4.36.09-6.55.38-5,.67-10.13.78-15.19,1-5.63.26-11.26.6-16.89.82-6.21.24-12.42.27-18.61.68-4.52.3-9,.15-13.53.07a113.76,113.76,0,0,1-18-1.68c-.66-.12-1.34-.14-2-.26a95.92,95.92,0,0,1-13.85-3.52c-4.11-1.24-7.92-3.22-12-4.6a2,2,0,0,1-.49-.24,73,73,0,0,0-6.35-3.86A67.83,67.83,0,0,1,30.09,213.8c-7.26-15.22-10.4-33-10.37-44.21.15-2.26.09-4.52.05-6.77-.08-4.34.48-8.65.44-13a27.81,27.81,0,0,0,.54-5.38,251.15,251.15,0,0,1,3.57-26.33c1.2-6.39,8.08-32.58,12.24-42.93a202.87,202.87,0,0,1,13.23-25c7.48-11.68,12.82-16,21.3-22.8,3-2.65,6.29-4.92,9.43-7.4A47.72,47.72,0,0,1,85,17.23c1.39-.86,8.06-4.75,8.55-5,5.42-2.8,15.7-7.4,21.32-8.59C131.52.1,177.87-.25,182.87.11Z"/><path class="cls-2" d="M426.35,11.81a7.53,7.53,0,0,1-.94,2.2c-.94,1.74-77.37,86.55-80.5,90.09a28.72,28.72,0,0,1-2,2.27,1.34,1.34,0,0,0-.34,1.68c.47.64,51.4,123.9,52.55,127.18a11,11,0,0,1,.54,6.6,5.68,5.68,0,0,1-.91,1.92,1.17,1.17,0,0,0-.68.68h0a9.25,9.25,0,0,1-6.63,2.88c-6,.23-12,.23-18,.39-10.17.28-20.33.62-30.51.68-1.45,0-9.39-.21-11.15-.9a10.89,10.89,0,0,1-1.89-.72h0l-.15-.08h0a11.7,11.7,0,0,1-4.13-3.45l-.08-.08h0a18.73,18.73,0,0,1-1.61-2.53h0l0,0h0c-.47-.88-.9-1.81-1.3-2.76-1-2.28-1.83-4.6-2.69-6.93a1.34,1.34,0,0,0-.07-.18c-.08-.22-.16-.45-.25-.67-.49-1.33-1-2.65-1.49-4q-.21-.58-.45-1.17s0-.09-.05-.13l-.33-.83c-2.48-6.11-4.69-12.33-7.16-18.45-1.95-4.86-3.8-9.77-5.63-14.67-1.83-5.29-4-10.46-5.95-15.69-1.07-2.83-2.17-5.64-3.26-8.45-.09-.21-.17-.42-.24-.6h0c-.17-.33-.4-.54-.81-.37h0a1.9,1.9,0,0,0-.41.27c-4.05,4.66-15.1,17-16.26,18.21-.89,2.65-.79,5.45-1.29,8.17-.12.64-.5,3-1.06,6.34h0c-2.39,14.42-7.95,47.88-9,49.31-.32.45-.65.89-1.29.88-2.61,1.51-71,4.75-76.14,5.08-.67,0-1.35,0-2,0-.2-.74.25-1.31.57-1.89,5.65-10.07,11-20.28,16.54-30.42s11-20.43,16.48-30.64q6.79-12.61,13.67-25.21c4.39-8,8.67-16.15,13.06-24.19,5.56-10.18,10.93-20.46,16.57-30.6.26-.48.91-1,.21-1.61-5.89-.18-11.77,0-17.65-.07l-12-.11H230c-3.59,0-6.73,0-7.78,0h-.25a.8.8,0,0,1-.5-.88c1-3.64,1.27-7.19,2-10.88,1-5.47,2-11,2.9-16.43,1.21-7,2.38-13.94,3.59-20.91C230.94,54,232,48,233.07,42c1.11-6.36,2.18-12.73,3.29-19.09.7-4,1.58-7.94,2.15-11.94.46-3.24,1.17-6.61,1.33-9.9a.41.41,0,0,0,0-.11c3.2,0,53.12,2.34,54.32,2.62,2.62.59,3.89,2.23,4,4.94,0,.43-8.06,61.45-8.73,68.43a4.67,4.67,0,0,1-.2,1,4.06,4.06,0,0,1-.24.63c0,.06,0,.08-.05.08s0,0,0,.07.07-.1.14-.13l.21-.2c1.13-1.12,4.3-4.76,8.19-9.31l0,0c7.31-8.52,17.15-20.2,20.86-24.45,5.58-6.39,11-12.92,16.64-19.28,2.83-3.21,15.95-17.45,18.3-19A64.25,64.25,0,0,1,362,4.26a70.06,70.06,0,0,1,10.84-.09c5.43.28,10.86.09,16.27.34,7.69.35,15.38,0,23.06.39a78.09,78.09,0,0,1,9.28.49C425.81,6.11,427.06,9,426.35,11.81Z"/></g></g></svg>