<svg width="20" height="20" viewBox="0 0 20 20" fill="none" xmlns="http://www.w3.org/2000/svg">
<path d="M15.0001 0.713867H5.00007C2.63314 0.713867 0.714355 2.63265 0.714355 4.99958V14.9996C0.714355 17.3665 2.63314 19.2853 5.00007 19.2853H15.0001C17.367 19.2853 19.2858 17.3665 19.2858 14.9996V4.99958C19.2858 2.63265 17.367 0.713867 15.0001 0.713867Z" stroke="white" stroke-linecap="round" stroke-linejoin="round"/>
<path d="M5.71436 11.4282L8.64293 13.771C8.72158 13.8358 8.81367 13.8822 8.91252 13.9069C9.01137 13.9316 9.11448 13.934 9.21435 13.9139C9.31519 13.895 9.41076 13.8545 9.49458 13.7954C9.57839 13.7362 9.64848 13.6597 9.70007 13.571L14.2858 5.71387" stroke="white" stroke-linecap="round" stroke-linejoin="round"/>
</svg>
