<svg width="20" height="20" viewBox="0 0 20 20" fill="none" xmlns="http://www.w3.org/2000/svg">
<path d="M12.8573 10.7143C16.4077 10.7143 19.2859 9.4351 19.2859 7.85714C19.2859 6.27919 16.4077 5 12.8573 5C9.30688 5 6.42871 6.27919 6.42871 7.85714C6.42871 9.4351 9.30688 10.7143 12.8573 10.7143Z" stroke="white" stroke-linecap="round" stroke-linejoin="round"/>
<path d="M6.42871 7.85742V16.4289C6.42871 18.0003 9.28585 19.286 12.8573 19.286C16.4287 19.286 19.2859 18.0003 19.2859 16.4289V7.85742" stroke="white" stroke-linecap="round" stroke-linejoin="round"/>
<path d="M19.2859 12.1426C19.2859 13.714 16.4287 14.9997 12.8573 14.9997C9.28585 14.9997 6.42871 13.714 6.42871 12.1426" stroke="white" stroke-linecap="round" stroke-linejoin="round"/>
<path d="M12.7144 2.14326C11.0451 1.11308 9.10197 0.614852 7.14293 0.714686C3.58578 0.714686 0.714355 2.0004 0.714355 3.57183C0.714355 4.41469 1.54293 5.17183 2.85721 5.71469" stroke="white" stroke-linecap="round" stroke-linejoin="round"/>
<path d="M2.85721 14.2866C1.54293 13.7437 0.714355 12.9866 0.714355 12.1437V3.57227" stroke="white" stroke-linecap="round" stroke-linejoin="round"/>
<path d="M2.85721 10.0003C1.54293 9.45742 0.714355 8.70028 0.714355 7.85742" stroke="white" stroke-linecap="round" stroke-linejoin="round"/>
</svg>
