<svg width="20" height="20" viewBox="0 0 20 20" fill="none" xmlns="http://www.w3.org/2000/svg">
<path d="M6.42864 18.5711C9.58455 18.5711 12.1429 16.0128 12.1429 12.8569C12.1429 9.70095 9.58455 7.14258 6.42864 7.14258C3.27273 7.14258 0.714355 9.70095 0.714355 12.8569C0.714355 16.0128 3.27273 18.5711 6.42864 18.5711Z" stroke="white" stroke-width="1.2" stroke-linecap="round" stroke-linejoin="round"/>
<path d="M13.5715 18.5711C16.7274 18.5711 19.2857 16.0128 19.2857 12.8569C19.2857 9.70095 16.7274 7.14258 13.5715 7.14258C10.4156 7.14258 7.85718 9.70095 7.85718 12.8569C7.85718 16.0128 10.4156 18.5711 13.5715 18.5711Z" stroke="white" stroke-width="1.2" stroke-linecap="round" stroke-linejoin="round"/>
<path d="M10.0002 12.8573C13.1561 12.8573 15.7145 10.2989 15.7145 7.143C15.7145 3.98708 13.1561 1.42871 10.0002 1.42871C6.84426 1.42871 4.28589 3.98708 4.28589 7.143C4.28589 10.2989 6.84426 12.8573 10.0002 12.8573Z" stroke="white" stroke-width="1.2" stroke-linecap="round" stroke-linejoin="round"/>
</svg>
